<?xml version="1.0" encoding="UTF-8"?>
<svg width="170px" height="41px" viewBox="0 0 170 41" version="1.1" xmlns="http://www.w3.org/2000/svg" xmlns:xlink="http://www.w3.org/1999/xlink">
    <!-- Generator: Sketch 48.2 (47327) - http://www.bohemiancoding.com/sketch -->
    <title>Logo Copy</title>
    <desc>Created with Sketch.</desc>
    <defs></defs>
    <g id="Corporate_Logotype" stroke="none" stroke-width="1" fill="none" fill-rule="evenodd" transform="translate(-1892.000000, -1862.000000)">
        <g id="KG-White" transform="translate(1808.000000, 1729.000000)" fill="#0094A3" fill-rule="nonzero">
            <g id="Logo-Copy" transform="translate(84.000000, 133.000000)">
                <polygon id="Fill-1" points="0.223361006 40.714591 0.223361006 40.714591 5.76870216 40.714591 6.16079699 40.2821331 6.16079699 38.9229798"></polygon>
                <polygon id="Fill-2" points="13.9408392 37.3816995 15.3841843 40.5392195 15.7305871 40.7335284 22.9473124 40.7335284 23.2937152 40.3449106 21.0420969 35.7786509"></polygon>
                <polygon id="Fill-3" points="14.0637433 0.203234698 13.7477042 0.426452996 6.5841495 15.5494927 5.84672476 15.382079 5.84672476 0.593866719 5.47801239 0.203234698 0.368712372 0.203234698 0 0.593866719 0 40.0477009 5.89939795 32.2350604 5.89939795 28.1613265 8.42771136 22.7482828 9.90256085 26.8778213 14.4851289 20.8509273 12.7469134 16.4423659 20.9112588 0.705475868 20.6478928 0.203234698"></polygon>
                <polygon id="Fill-4" points="6.09372766 32.9326176 0.517391971 40.0477009 6.09372766 38.5230402"></polygon>
                <polygon id="Fill-5" points="13.7565531 36.833073 20.5519588 34.9355262 17.6791044 27.747849 15.0824859 21.2501888 10.2759794 27.5178434 12.8725979 34.4755149"></polygon>
                <polygon id="Fill-6" points="31.6355429 1.99484589 26.3070444 9.10992914 31.449665 9.10992914 31.88338 8.64876633 31.88338 2.19248709"></polygon>
                <polygon id="Fill-7" points="25.3933136 8.74133459 30.6698463 1.62625135 25.4532742 1.62625135 25.0935106 2.0143468 25.0935106 8.41792172"></polygon>
                <polygon id="Fill-8" points="31.6905149 11.2187733 25.5291618 11.2187733 25.0935106 11.6111009 25.0935106 33.3012122 32.0639302 31.6198082 32.0639302 11.6111009"></polygon>
                <polygon id="Fill-9" points="25.0935106 34.4722711 25.0935106 40.374276 25.5253065 40.7335284 31.6321343 40.7335284 32.0639302 40.374276 32.0639302 32.9326176"></polygon>
                <g id="Group-62" transform="translate(36.246182, 0.000000)">
                    <path d="M9.59861061,15.8564178 C10.3664995,15.8564178 10.9149915,16.0781867 11.1343883,16.4662821 C11.4086343,16.9098198 11.5183327,17.5751263 11.5183327,18.573086 L11.5183327,24.2281911 L12.6153168,26.5013216 L17.6614435,25.1152664 L17.6614435,15.634649 C17.6614435,14.304036 17.2774991,13.1397497 16.454761,12.1972322 C15.632023,11.2547146 14.5898881,10.7557348 13.3283564,10.7557348 C12.2313724,10.7557348 11.1892375,10.9220614 10.2019518,11.3101569 C9.21466618,11.6982523 8.44677733,12.0863478 7.8982853,12.5298854 C7.56919008,12.7516542 7.18524565,13.0843075 6.80130123,13.4724029 L6.47220601,13.749614 L7.73373769,16.4108399 C7.84343609,16.3553977 8.00798371,16.2999555 8.11768211,16.2445133 C8.66617415,15.9673022 9.10496777,15.8564178 9.59861061,15.8564178" id="Fill-10"></path>
                    <polygon id="Fill-12" points="6.19795999 11.4764835 5.81401557 11.088388 5.32037274 11.088388 6.19795999 12.9179809 6.19795999 11.4764835"></polygon>
                    <polygon id="Fill-14" points="0.0548492035 30.7703715 0.0548492035 40.1955468 0.438793628 40.5836422 5.86886477 40.5836422 6.25280919 40.1955468 6.25280919 29.1071053"></polygon>
                    <path d="M0.438793628,11.1438302 L0.0548492035,11.5319257 L0.0548492035,29.9387384 L6.19795999,28.2754722 L6.19795999,17.4642418 L6.3625076,17.3533574 C6.69160282,17.0761464 6.96584884,16.9098198 7.13039645,16.7434931 L4.44278548,11.1438302 L0.438793628,11.1438302 Z" id="Fill-16"></path>
                    <polygon id="Fill-18" points="12.944412 27.2220703 17.6614435 37.2016676 17.6614435 25.9468995"></polygon>
                    <polygon id="Fill-20" points="11.5183327 26.0577839 11.5183327 26.7785326 11.7925787 26.7230904"></polygon>
                    <polygon id="Fill-22" points="12.1765232 27.4438391 11.5183327 27.6101657 11.5183327 40.1401045 11.9022772 40.5282 17.3323483 40.5282 17.7162927 40.1401045 17.7162927 39.0312604"></polygon>
                    <path d="M34.0613553,13.0288653 C34.0065061,12.9734231 33.8968077,12.9179809 33.8419585,12.8625387 C33.5128633,12.5853276 33.1289189,12.2526744 32.5804269,11.8645789 C32.0319348,11.4764835 31.4834428,11.1992724 30.9349508,11.0329458 C30.3316095,10.8666192 29.7282683,10.7557348 29.0700778,10.7557348 C28.2473398,10.7557348 27.4794509,10.8666192 26.7664113,11.1438302 C26.0533716,11.3655991 25.4500304,11.7536945 24.9563876,12.14179 C24.4627447,12.5853276 24.0239511,13.0843075 23.6400067,13.749614 C23.2560623,14.3594782 22.9818162,15.0802269 22.7624194,15.7455334 C22.5430226,16.4108399 22.378475,17.242473 22.2139274,18.0741061 C22.0493798,18.9611814 21.9945306,19.7928145 21.8848322,20.6244476 C21.829983,21.4560808 21.7751338,22.3431561 21.7751338,23.3411158 C21.7751338,23.396558 21.7751338,23.4520002 21.7751338,23.5074424 C21.7751338,23.673769 21.7751338,23.8400957 21.7751338,24.0064223 L27.8633954,22.3431561 C27.8633954,22.3431561 27.8633954,22.2877139 27.8633954,22.2877139 C27.8633954,22.2877139 27.8633954,22.2322717 27.8633954,22.2322717 C27.8633954,21.8441762 27.8633954,21.4006385 27.8633954,20.9571009 C27.8633954,20.18091 27.9182446,19.5156035 28.027943,18.9611814 C28.1376414,18.4067594 28.2473398,17.8523373 28.4667366,17.3533574 C28.6312842,16.8543776 28.9055302,16.4662821 29.2894746,16.2445133 C29.6734191,15.9673022 30.0573635,15.8564178 30.6058555,15.8564178 C32.0319348,15.8564178 33.3483157,16.1890711 34.500149,16.7989354 L34.7195458,16.9098198 L34.7195458,20.458121 L40.8626566,18.7948548 L40.8626566,13.2506341 L34.7195458,11.3655991 L34.7195458,13.6387296 L34.0613553,13.0288653 Z" id="Fill-24"></path>
                    <polygon id="Fill-26" points="40.8626566 12.2347037 40.8626566 0.475153443 40.4787122 0.109300767 35.1034902 0.109300767 34.7195458 0.475153443 34.7195458 10.5099697"></polygon>
                    <path d="M34.7195458,21.2897541 L34.7195458,34.9285371 L34.4452998,35.0394215 C33.1289189,35.5384014 31.812538,35.7601702 30.6058555,35.7601702 C30.1122127,35.7601702 29.6734191,35.5938436 29.3443239,35.2611903 C28.9603794,34.9285371 28.6861334,34.374115 28.5215858,33.7088085 C28.302189,33.043502 28.1924906,32.2673111 28.0827922,31.5465624 C27.9730938,30.8258138 27.9182446,29.9387384 27.9182446,28.9962209 C27.9182446,28.7744521 27.9182446,28.5526833 27.9182446,28.2754722 C27.9182446,28.2754722 27.9182446,28.2754722 27.9182446,28.22003 C27.9182446,28.1645878 27.9182446,28.1091456 27.9182446,28.1091456 C27.9182446,28.1091456 27.9182446,28.0537034 27.9182446,28.0537034 C27.9182446,27.942819 27.9182446,27.7764924 27.9182446,27.6101657 C27.9182446,27.4438391 27.9182446,27.2775125 27.9182446,27.0557437 C27.9182446,26.9448593 27.9182446,26.8339748 27.9182446,26.7230904 C27.9182446,26.1132261 27.9182446,25.5033619 27.9182446,24.8380554 C27.9182446,24.8380554 27.9182446,24.7826132 27.9182446,24.7826132 C27.9182446,24.2836333 27.9182446,23.7292112 27.9182446,23.2302314 L21.829983,24.8934976 C21.829983,25.7805729 21.829983,26.5567638 21.829983,27.1666281 L21.829983,27.2220703 L21.829983,27.2775125 C21.829983,27.3329547 21.829983,27.3883969 21.829983,27.4438391 C21.829983,27.4992813 21.829983,27.6101657 21.829983,27.6656079 C21.829983,27.6656079 21.829983,27.7210502 21.829983,27.7210502 C21.829983,27.7764924 21.829983,27.8319346 21.829983,27.8873768 C21.829983,27.9982612 21.829983,28.1091456 21.829983,28.22003 C21.829983,28.3309144 21.829983,28.4417988 21.829983,28.5526833 C21.8848322,30.1050651 22.0493798,31.5465624 22.3236258,32.8771754 C22.5978718,34.2077884 22.9818162,35.5384014 23.4754591,36.7581299 C24.0239511,38.0333007 24.7369908,39.0312604 25.7242764,39.8074513 C26.7115621,40.5282 27.8633954,40.9162954 29.1797762,40.9162954 C30.3864587,40.9162954 31.4285936,40.6390844 32.36103,40.0292201 C32.9095221,39.6965669 33.5128633,39.2530292 34.0613553,38.7540494 L34.7195458,38.1996273 L34.7195458,40.1401045 L35.1034902,40.5282 L40.5335614,40.5282 L40.9175058,40.1401045 L40.9175058,19.6264879 L34.7195458,21.2897541 Z" id="Fill-28"></path>
                    <path d="M62.5829411,19.8482567 L57.15287,19.8482567 L56.7689256,20.2363522 L56.7689256,24.2281911 L57.15287,24.6162866 L62.5280919,24.6162866 L62.5280919,25.8360151 C62.5280919,27.0003015 62.4732427,27.9982612 62.4183935,28.9407787 C62.3635443,29.827854 62.1989967,30.7703715 61.9247507,31.6574469 C61.7053539,32.5445222 61.3762587,33.3207131 60.9923142,33.8751351 C60.6083698,34.4295572 60.0598778,34.9285371 59.4016873,35.2611903 C58.7434969,35.6492858 57.9207589,35.8156124 56.9883224,35.8156124 C56.2204335,35.8156124 55.5073939,35.704728 54.9040527,35.4829591 C54.3007114,35.2611903 53.8070686,34.8730949 53.4231242,34.4295572 C53.0391797,33.9860196 52.7100845,33.4315975 52.4358385,32.8771754 C52.1615925,32.3227533 51.9421957,31.6020047 51.8324973,30.8258138 C51.6679497,30.0496229 51.6131005,29.2179897 51.5582513,28.4417988 C51.503402,27.6656079 51.4485528,26.7785326 51.4485528,25.8360151 L51.4485528,16.7434931 L45.3054421,18.4067594 L45.3054421,24.5054021 C45.3054421,26.5013216 45.4151405,28.3309144 45.5796881,29.8832962 C45.7990849,31.435678 46.1281801,32.9326176 46.6218229,34.374115 C47.1154658,35.8156124 47.8285054,36.9798987 48.7060927,37.9224163 C49.5836799,38.8649338 50.7355132,39.5856825 52.1067433,40.1401045 C53.4779734,40.6945266 55.1234495,40.9717377 56.9334732,40.9717377 C59.2919889,40.9717377 61.0471635,39.8074513 62.2538459,37.4788786 L62.6926396,36.6472455 L63.899322,40.3064312 L64.2284173,40.5836422 L68.2324091,40.5836422 L68.6163535,40.1955468 L68.6163535,21.7332918 L62.5829411,19.8482567 Z" id="Fill-30"></path>
                    <path d="M65.3802505,12.9734231 L68.0130123,12.9734231 L68.3969567,12.5853276 C68.3969567,12.419001 68.3969567,12.2526744 68.3969567,12.14179 L65.3802505,12.9734231 Z" id="Fill-32"></path>
                    <polygon id="Fill-34" points="50.4612672 16.1890711 45.3054421 14.6366893 45.3054421 17.5751263"></polygon>
                    <path d="M68.0678615,9.09090264 C68.0678615,9.09090264 68.0678615,9.03855266 68.0678615,9.03855266 C68.0130123,8.67210287 67.9581631,8.30565307 67.8484647,7.99155324 C67.7387663,7.62510345 67.6839171,7.25865365 67.5742187,6.94455383 C67.135425,5.53110461 66.4772346,4.32705528 65.5996473,3.28005586 C64.7220601,2.23305644 63.5702268,1.44780687 62.1989967,0.871957192 C60.8277666,0.348457482 59.1274413,0.0343576564 57.2625684,0.0343576564 C49.4739815,0.0343576564 45.4699897,4.69350507 45.3602913,13.9071 L51.503402,15.634649 L51.503402,12.9124505 C51.503402,11.7084012 51.6131005,10.6090518 51.7776481,9.66675232 C51.9421957,8.77680281 52.2712909,7.8868533 52.6552353,7.15395371 C53.0391797,6.42105412 53.642521,5.84520443 54.4104098,5.47875464 C55.1782987,5.11230484 56.1107351,4.90290496 57.2625684,4.90290496 C58.0853065,4.90290496 58.7983461,5.0076049 59.4016873,5.21700478 C60.0050286,5.42640467 60.4438222,5.74050449 60.8277666,6.10695429 C61.1568619,6.47340409 61.4859571,6.94455383 61.6505047,7.57275348 C61.8699015,8.20095313 62.0344491,8.82915278 62.0892983,9.45735243 C62.1441475,10.0855521 62.1989967,10.8708016 62.2538459,11.7607512 L62.2538459,12.7554006 L62.5829411,13.0695004 L68.3969567,11.6037012 C68.3969567,11.6037012 68.3969567,11.6037012 68.3969567,11.5513513 C68.2872583,10.6614018 68.1775599,9.8761522 68.0678615,9.09090264" id="Fill-36"></path>
                    <polygon id="Fill-38" points="68.3421075 19.8482567 65.3254013 19.8482567 68.6712027 20.8462165 68.6712027 20.18091"></polygon>
                    <path d="M89.4042016,29.9941806 L84.0289797,29.9941806 L83.6450353,30.3822761 L83.6450353,31.435678 C83.6450353,32.1564267 83.5901861,32.7108488 83.5353369,33.2098287 C83.4804877,33.6533663 83.3159401,34.096904 83.1513924,34.5958838 C82.9868448,35.0394215 82.7125988,35.3166325 82.3835036,35.5384014 C82.0544084,35.7601702 81.5607655,35.8710546 81.0122735,35.8710546 C80.5734799,35.8710546 80.1895355,35.7601702 79.8604402,35.5384014 C79.531345,35.3166325 79.3119482,35.0394215 79.0925514,34.7067682 C78.9280038,34.3186728 78.7634562,33.8751351 78.5989086,33.3761553 C78.4892102,32.8771754 78.3795117,32.3227533 78.3795117,31.7683313 C78.3246625,31.2139092 78.3246625,30.6040449 78.3246625,29.9941806 C78.3246625,29.7169696 78.3246625,29.3843164 78.3246625,29.1071053 C78.3246625,28.8298943 78.3246625,28.5526833 78.3246625,28.2754722 L78.3246625,26.1132261 L82.8222972,26.1132261 L72.236401,22.8975781 C72.236401,23.119347 72.236401,23.2856736 72.236401,23.5074424 C72.236401,24.1173067 72.1815518,24.7826132 72.1815518,25.3924775 C72.1815518,26.0023417 72.1815518,26.6676482 72.236401,27.2775125 C72.2912502,28.8853365 72.3460994,30.3268339 72.510647,31.5465624 C72.6751946,32.766291 72.8945914,33.9860196 73.2785358,35.2057481 C73.6624802,36.4254767 74.1561231,37.4788786 74.7594643,38.2550695 C75.3628056,39.0312604 76.2403928,39.6965669 77.2825277,40.1955468 C77.8310197,40.4173156 78.3795117,40.6390844 78.982853,40.7499688 L89.7332969,30.3268339 L89.4042016,29.9941806 Z" id="Fill-40"></path>
                    <path d="M83.6450353,21.1788697 L83.6450353,22.7312515 L78.3246625,22.7312515 L78.3246625,21.3451963 C78.3246625,20.5690054 78.3795117,19.8482567 78.4343609,19.2938347 C78.4892102,18.7394126 78.6537578,18.1295483 78.8183054,17.5751263 C78.982853,17.0207042 79.257099,16.5771665 79.6410434,16.2999555 C80.0249878,16.0227445 80.4637815,15.8564178 81.0122735,15.8564178 C81.5607655,15.8564178 81.94471,15.9673022 82.3286544,16.2445133 C82.7125988,16.5217243 82.9319956,16.9098198 83.1513924,17.4642418 C83.3159401,18.0186639 83.4804877,18.573086 83.5353369,19.1275081 C83.5901861,19.7373723 83.6450353,20.4026788 83.6450353,21.1788697 Z M89.7332969,21.3451963 C89.6784477,20.2363522 89.5139,19.1275081 89.2945032,17.9632217 C89.0751064,16.7989354 88.7460112,15.8009756 88.3620668,15.0247847 C87.9232731,14.1931516 87.4296303,13.4724029 86.7714399,12.8070964 C86.1132494,12.14179 85.3453606,11.6428101 84.3580749,11.3101569 C83.4256385,10.9775036 82.2738052,10.811177 81.0671227,10.811177 C79.6958926,10.811177 78.4892102,11.0329458 77.4470753,11.4764835 C76.4049404,11.9200211 75.5822024,12.5298854 74.9240119,13.2506341 C74.2658215,13.9713828 73.7721787,14.9139003 73.3882342,16.0227445 C73.0042898,17.1315886 72.7300438,18.2958749 72.5654962,19.4601613 C72.5654962,19.5156035 72.5654962,19.5710457 72.5654962,19.5710457 C72.5654962,19.7928145 72.510647,19.9591412 72.510647,20.18091 C72.510647,20.2917944 72.4557978,20.458121 72.4557978,20.6244476 C72.4557978,20.7353321 72.4557978,20.7907743 72.4557978,20.9016587 C72.4009486,21.2897541 72.4009486,21.6778496 72.3460994,22.065945 L85.6196066,26.1132261 L89.5139,26.1132261 L89.8978445,25.7251307 L89.8978445,25.2261508 C89.8429953,23.7292112 89.7881461,22.4540405 89.7332969,21.3451963 Z" id="Fill-42"></path>
                    <path d="M79.9701386,40.8608532 C80.2992339,40.9162954 80.6283291,40.9162954 80.9574243,40.9162954 C83.8644321,40.9162954 86.0584002,40.0846623 87.4296303,38.4768383 C87.9781224,37.8669741 88.3620668,37.1462254 88.7460112,36.3145923 C88.8008604,36.25915 88.8008604,36.1482656 88.8008604,36.0928234 C88.8557096,35.8710546 88.965408,35.704728 89.0202572,35.4829591 C89.0751064,35.2611903 89.1299556,35.0948637 89.1848048,34.8730949 C89.1848048,34.7622105 89.239654,34.651326 89.2945032,34.5958838 C89.3493524,34.3186728 89.4042016,34.0414618 89.4590508,33.7642507 C89.4590508,33.7088085 89.4590508,33.6533663 89.5139,33.5979241 C89.5687493,33.2652709 89.6235985,32.9326176 89.6784477,32.5445222 C89.6784477,32.5445222 89.6784477,32.5445222 89.6784477,32.5445222 C89.7332969,32.1564267 89.7332969,31.8237735 89.7881461,31.435678 L79.9701386,40.8608532 Z" id="Fill-44"></path>
                    <path d="M104.542582,32.6554066 C104.542582,32.7108488 104.542582,32.766291 104.542582,32.8217332 C104.542582,32.9326176 104.542582,33.043502 104.487733,33.0989442 C104.432883,33.5424819 104.268336,33.9860196 104.103788,34.4849994 C103.939241,34.9285371 103.664995,35.2057481 103.335899,35.4275169 C103.006804,35.6492858 102.513161,35.7601702 101.964669,35.7601702 C101.525876,35.7601702 101.141931,35.6492858 100.812836,35.4275169 C100.483741,35.2057481 100.264344,34.9285371 100.044947,34.5958838 C99.8803995,34.2077884 99.7158519,33.7642507 99.5513043,33.2652709 C99.4416059,32.766291 99.3319075,32.2118689 99.3319075,31.6574469 C99.3319075,31.435678 99.3319075,31.2139092 99.2770583,30.9921404 L93.1887967,29.1625475 C93.1887967,29.1625475 93.1887967,29.1625475 93.1887967,29.2179897 C93.1887967,29.3843164 93.1887967,29.6060852 93.2436459,29.7724118 C93.2436459,29.9387384 93.2436459,30.1050651 93.2984951,30.2713917 C93.2984951,30.3822761 93.2984951,30.4931605 93.3533443,30.6040449 C93.3533443,30.881256 93.4081935,31.2139092 93.4630427,31.4911202 C93.6275903,32.7108488 93.8469871,33.9305774 94.2309315,35.1503059 C94.614876,36.3700345 95.1085188,37.4234364 95.71186,38.1996273 C96.3152013,38.9758182 97.1927885,39.6411247 98.2349234,40.1401045 C99.2770583,40.6390844 100.53859,40.8608532 101.90982,40.8608532 C104.816828,40.8608532 107.010796,40.0292201 108.382026,38.4213961 C108.546574,38.2550695 108.711121,38.0333007 108.82082,37.8115318 C108.82082,37.7560896 108.875669,37.7560896 108.875669,37.7006474 C109.040216,37.4788786 109.149915,37.2571098 109.259613,37.0353409 C109.259613,36.9798987 109.314462,36.9798987 109.314462,36.9244565 C109.424161,36.7581299 109.47901,36.5363611 109.588709,36.3145923 C109.643558,36.25915 109.643558,36.1482656 109.698407,36.0928234 C109.808105,35.8710546 109.862955,35.6492858 109.917804,35.4275169 C109.972653,35.3166325 109.972653,35.2057481 110.027502,35.0394215 C110.082351,34.9285371 110.082351,34.7622105 110.137201,34.651326 C110.19205,34.4849994 110.19205,34.374115 110.246899,34.2077884 C110.246899,34.2077884 110.246899,34.2077884 110.246899,34.2077884 L104.542582,32.6554066 C104.542582,32.5999644 104.542582,32.5999644 104.542582,32.6554066" id="Fill-46"></path>
                    <path d="M107.668986,12.7516542 C107.010796,12.0863478 106.242907,11.5873679 105.255621,11.2547146 C104.323185,10.9220614 103.171352,10.7557348 101.964669,10.7557348 C100.593439,10.7557348 99.3867567,10.9775036 98.3446218,11.4210413 C97.3024869,11.8645789 96.4797489,12.4744432 95.8215584,13.1951919 C95.163368,13.9159406 94.6697252,14.8584581 94.2857807,15.9673022 C93.9018363,17.0761464 93.6275903,18.2404327 93.4630427,19.4047191 C93.2984951,20.5690054 93.1887967,21.9550606 93.1339475,23.4520002 C93.0790983,24.6717288 93.0790983,25.8914573 93.1339475,27.1111859 L99.2770583,21.1234275 C99.2770583,20.4026788 99.3319075,19.7928145 99.3867567,19.2938347 C99.4416059,18.7394126 99.6061535,18.1295483 99.7707011,17.5751263 C99.9352487,17.0207042 100.209495,16.5771665 100.593439,16.2999555 C100.977384,16.0227445 101.416177,15.8564178 101.964669,15.8564178 C102.513161,15.8564178 102.897106,15.9673022 103.28105,16.2445133 C103.445598,16.4108399 103.610145,16.5771665 103.774693,16.7989354 L107.833534,12.8625387 C107.723836,12.8625387 107.668986,12.8070964 107.668986,12.7516542" id="Fill-48"></path>
                    <path d="M110.356597,29.9941806 L104.981375,29.9941806 L104.597431,30.3822761 L104.597431,31.435678 C104.597431,31.5465624 104.597431,31.6574469 104.597431,31.7683313 C104.597431,31.7683313 104.597431,31.8237735 104.597431,31.8237735 L110.466296,33.5979241 C110.466296,33.5979241 110.466296,33.5979241 110.466296,33.5979241 C110.521145,33.3207131 110.521145,33.043502 110.575994,32.7108488 C110.575994,32.6554066 110.575994,32.5445222 110.630843,32.48908 C110.685693,32.2118689 110.685693,31.8792157 110.685693,31.6020047 C110.685693,31.4911202 110.685693,31.435678 110.685693,31.3247936 L110.685693,30.3822761 L110.356597,29.9941806 Z" id="Fill-50"></path>
                    <path d="M110.630843,21.3451963 C110.521145,20.2363522 110.411447,19.1275081 110.19205,17.9632217 C109.972653,16.7989354 109.643558,15.8009756 109.259613,15.0247847 C109.149915,14.8030159 108.985367,14.5258049 108.82082,14.304036 C108.82082,14.304036 108.76597,14.2485938 108.76597,14.2485938 C108.601423,14.026825 108.436875,13.8050562 108.272328,13.5832873 L104.048939,17.6860107 C104.213487,18.2404327 104.323185,18.7394126 104.432883,19.2938347 C104.487733,19.8482567 104.542582,20.5135632 104.542582,21.2897541 L104.542582,22.8421359 L99.2770583,22.8421359 L99.2770583,22.3431561 L93.1887967,28.22003 C93.1887967,28.2754722 93.1887967,28.3309144 93.1887967,28.3863566 L99.2770583,30.2159495 C99.2770583,30.1605073 99.2770583,30.0496229 99.2770583,29.9941806 C99.2770583,29.7169696 99.2770583,29.3843164 99.2770583,29.1071053 C99.2770583,28.8298943 99.2770583,28.5526833 99.2770583,28.2754722 L99.2770583,26.0577839 L110.411447,26.0577839 L110.795391,25.6696885 L110.795391,25.1707086 C110.740542,23.7292112 110.685693,22.4540405 110.630843,21.3451963" id="Fill-52"></path>
                    <polygon id="Fill-54" points="114.470288 35.5938436 114.470288 40.1401045 114.854232 40.5282 120.284303 40.5282 120.668248 40.1401045 120.668248 37.4788786"></polygon>
                    <polygon id="Fill-56" points="120.613398 0.972201866 120.613398 0.410992068 120.229454 0.0538585601 114.799383 0.0538585601 114.470288 0.410992068 114.470288 6.43124263"></polygon>
                    <polygon id="Fill-58" points="123.191311 26.7230904 126.811358 38.5322805 133.119017 40.4727578 133.393263 40.0846623 127.085604 21.511523 127.085604 21.511523 127.085604 21.511523 133.338414 11.6428101 133.064168 11.1438302 127.634096 11.1438302 127.305001 11.3101569 120.558549 21.4006385 120.558549 21.4006385 120.558549 1.60777061 114.415438 7.54008677 114.415438 34.8176527 120.558549 36.7026877 120.558549 30.2159495 120.558549 30.2159495"></polygon>
                    <polygon id="Fill-60" points="127.35985 40.250989 127.688946 40.5282 130.595953 40.5282 127.085604 39.4747981"></polygon>
                </g>
            </g>
        </g>
    </g>
</svg>